<svg width="476" height="117" viewBox="0 0 476 117" fill="none" xmlns="http://www.w3.org/2000/svg">
<rect x="2.5" y="2.5" width="471" height="112" rx="12.5" fill="#007AFF" stroke="#007AFF" stroke-width="5"/>
<rect x="94.5" y="0.5" width="1" height="116" fill="black" stroke="white"/>
<rect x="190.5" y="0.5" width="1" height="116" fill="black" stroke="white"/>
<rect x="286.5" y="0.5" width="1" height="116" fill="black" stroke="white"/>
<rect x="382.5" y="0.5" width="1" height="116" fill="black" stroke="white"/>
<path d="M52.9016 88V65.8283H52.4141C51.9266 66.717 51.2224 67.7326 50.3015 68.8752C49.3987 70.0178 48.1528 71.0153 46.5638 71.8677C44.9748 72.7201 42.9164 73.1463 40.3885 73.1463C37.0299 73.1463 34.0325 72.2849 31.3963 70.5619C28.7781 68.8208 26.7196 66.3452 25.221 63.1351C23.7403 59.9068 23 56.0347 23 51.5188C23 47.0028 23.7493 43.1398 25.248 39.9296C26.7648 36.7195 28.8413 34.262 31.4775 32.5572C34.1138 30.8524 37.1022 30 40.4426 30C43.0247 30 45.1012 30.4353 46.6721 31.3058C48.2611 32.1582 49.489 33.1557 50.3557 34.2983C51.2404 35.4409 51.9266 36.4475 52.4141 37.318H53.0912V30.5441H61V88H52.9016ZM42.1761 66.2092C44.5053 66.2092 46.4735 65.5926 48.0805 64.3593C49.7056 63.1079 50.9335 61.3759 51.7641 59.1632C52.6127 56.9506 53.0371 54.3752 53.0371 51.4371C53.0371 48.5353 52.6218 45.9962 51.7912 43.8199C50.9606 41.6435 49.7417 39.9478 48.1347 38.7326C46.5277 37.5175 44.5415 36.9099 42.1761 36.9099C39.7384 36.9099 37.7071 37.5447 36.082 38.8143C34.4569 40.0838 33.229 41.8158 32.3984 44.0103C31.5859 46.2048 31.1796 48.6804 31.1796 51.4371C31.1796 54.2301 31.5949 56.742 32.4255 58.9728C33.2561 61.2036 34.484 62.9719 36.1091 64.2777C37.7522 65.5654 39.7745 66.2092 42.1761 66.2092Z" fill="white"/>
<path d="M147 30V88H139V30H147Z" fill="white"/>
<path d="M234.005 88V46.1746H241.915V88H234.005ZM238 39.7211C236.624 39.7211 235.443 39.2491 234.455 38.3052C233.485 37.343 233 36.1994 233 34.8742C233 33.5308 233.485 32.3872 234.455 31.4432C235.443 30.4811 236.624 30 238 30C239.376 30 240.549 30.4811 241.519 31.4432C242.506 32.3872 243 33.5308 243 34.8742C243 36.1994 242.506 37.343 241.519 38.3052C240.549 39.2491 239.376 39.7211 238 39.7211Z" fill="white"/>
<path d="M347.16 41.9018V49.0117H322V41.9018H347.16ZM328.747 31H337.714V74.0443C337.714 75.7625 337.974 77.0561 338.494 77.9251C339.013 78.7743 339.683 79.357 340.503 79.673C341.343 79.9692 342.252 80.1173 343.232 80.1173C343.952 80.1173 344.581 80.0679 345.121 79.9692C345.661 79.8705 346.081 79.7915 346.381 79.7322L348 87.0494C347.48 87.2469 346.74 87.4444 345.781 87.6419C344.821 87.8592 343.622 87.9777 342.182 87.9974C339.823 88.0369 337.624 87.6222 335.585 86.7532C333.546 85.8842 331.896 84.5412 330.637 82.7243C329.377 80.9073 328.747 78.6262 328.747 75.881V31Z" fill="white"/>
<path d="M432.088 83C427.515 83 423.577 82.0221 420.273 80.0662C416.99 78.0901 414.452 75.3176 412.659 71.7486C410.886 68.1594 410 63.9553 410 59.1361C410 54.3774 410.886 50.1834 412.659 46.5539C414.452 42.9244 416.95 40.0914 420.153 38.0548C423.376 36.0183 427.142 35 431.453 35C434.072 35 436.61 35.4335 439.068 36.3006C441.525 37.1676 443.731 38.5287 445.685 40.3837C447.639 42.2388 449.18 44.6484 450.308 47.6125C451.436 50.5564 452 54.1355 452 58.3497V61.5558H415.106V54.7807H443.147C443.147 52.4014 442.663 50.2943 441.696 48.4594C440.729 46.6043 439.37 45.1424 437.617 44.0737C435.885 43.005 433.85 42.4707 431.514 42.4707C428.976 42.4707 426.76 43.0958 424.866 44.3459C422.993 45.5759 421.542 47.189 420.515 49.1853C419.508 51.1613 419.004 53.3088 419.004 55.6276V60.9206C419.004 64.0258 419.548 66.6673 420.636 68.845C421.744 71.0227 423.285 72.6862 425.259 73.8355C427.233 74.9647 429.54 75.5293 432.178 75.5293C433.891 75.5293 435.452 75.2873 436.862 74.8034C438.272 74.2993 439.491 73.5532 440.518 72.5652C441.545 71.5772 442.331 70.3573 442.875 68.9055L451.426 70.448C450.741 72.9685 449.512 75.1764 447.74 77.0718C445.987 78.9471 443.781 80.4089 441.122 81.4575C438.483 82.4858 435.472 83 432.088 83Z" fill="white"/>
</svg>
